<svg width="24" height="24" viewBox="0 0 24 24" fill="none" xmlns="http://www.w3.org/2000/svg">
<g id="Frame 1410104085">
<path id="Vector" d="M9.8001 1.17343C6.87762 1.84229 4.48214 3.5046 2.83405 6.02266C-0.0501046 10.4588 0.52481 16.4097 4.20426 20.2064C5.30618 21.3474 6.98302 22.4491 8.24783 22.872C8.71735 23.0294 8.77484 23.0294 8.98564 22.8819C9.21561 22.7245 9.22519 22.6851 9.22519 21.554V20.3933L8.38198 20.4425C7.39504 20.4917 6.62849 20.3146 6.16856 19.9113C6.00566 19.7736 5.68946 19.3015 5.46908 18.8687C5.10496 18.1408 4.83667 17.8064 4.08928 17.1277C3.84015 16.9015 3.83057 16.8916 4.00304 16.7638C4.41507 16.449 5.24869 16.7539 5.7757 17.4031C6.69556 18.5539 7.05009 18.8589 7.5771 18.9769C8.04661 19.0753 8.4778 19.0359 9.12937 18.8392C9.21561 18.8097 9.33059 18.6031 9.38808 18.3671C9.44557 18.1408 9.59888 17.7966 9.72345 17.6097L9.95341 17.2654L9.17728 17.108C7.54835 16.7638 6.54225 16.1637 5.8811 15.1408C5.26786 14.1965 5.06664 13.3801 5.05706 11.8555C5.05706 10.4194 5.21037 9.82926 5.81403 9.02269C6.08232 8.66859 6.11107 8.56039 6.03441 8.35383C5.89068 7.99973 5.92901 6.50463 6.08232 6.05217C6.20688 5.71774 6.27396 5.65872 6.53267 5.62921C6.96386 5.58003 7.76874 5.86528 8.5832 6.33742L9.28268 6.75054L9.89592 6.60299C10.7679 6.39643 13.3837 6.40627 14.1695 6.60299L14.7635 6.76037L15.3193 6.41611C16.0571 5.96364 16.9961 5.60954 17.4656 5.60954C17.8393 5.60954 17.8393 5.61938 17.9926 6.12102C18.1555 6.70135 18.1843 7.75383 18.0405 8.25547C17.9639 8.55056 17.9831 8.63908 18.1939 8.92433C19.2383 10.3407 19.3533 12.6916 18.4717 14.6195C17.8777 15.8883 16.6224 16.7736 14.936 17.0982L14.1311 17.2556L14.4282 17.7966L14.7348 18.3474L14.7635 20.5408L14.8019 22.7343L15.0414 22.8917C15.2618 23.0392 15.3097 23.0392 15.7696 22.872C16.5362 22.6064 17.8489 21.8786 18.5676 21.3179C22.8411 18.0326 24.2209 12.1408 21.8541 7.24234C20.4648 4.36035 17.8393 2.14721 14.8306 1.32097C13.5179 0.966871 11.0458 0.888182 9.8001 1.17343Z" fill="#1C1C1E" fill-opacity="0.72"/>
</g>
</svg>
