<svg width="24" height="24" viewBox="0 0 24 24" fill="none" xmlns="http://www.w3.org/2000/svg">
<g id="Frame 1410104086">
<path id="Vector" fill-rule="evenodd" clip-rule="evenodd" d="M1.65378 10.6099C8.09622 7.78741 12.3922 5.92667 14.5417 5.02765C20.6789 2.46077 21.9542 2.01488 22.7854 2.00016C22.9682 1.99692 23.377 2.04248 23.6418 2.25852C23.8653 2.44094 23.9268 2.68737 23.9563 2.86033C23.9857 3.03328 24.0224 3.42728 23.9932 3.73514C23.6607 7.249 22.2216 15.7762 21.4895 19.7118C21.1797 21.3771 20.5697 21.9354 19.9792 21.9901C18.6958 22.1088 17.7213 21.1372 16.4783 20.3179C14.5333 19.0358 13.4344 18.2377 11.5465 16.9867C9.36454 15.5408 10.779 14.7462 12.0224 13.4475C12.3479 13.1076 18.0024 7.93584 18.1118 7.46668C18.1255 7.40801 18.1382 7.18929 18.009 7.0738C17.8798 6.9583 17.689 6.9978 17.5514 7.02921C17.3563 7.07373 14.2491 9.1389 8.22974 13.2247C7.34777 13.8337 6.5489 14.1304 5.83315 14.1149C5.04408 14.0977 3.52624 13.6663 2.39788 13.2974C1.0139 12.8451 -0.0860613 12.6059 0.00972047 11.8376C0.0596095 11.4374 0.60763 11.0282 1.65378 10.6099Z" fill="#1C1C1E" fill-opacity="0.72"/>
</g>
</svg>
