<svg xmlns="http://www.w3.org/2000/svg" width="" height="" viewBox="0 0 154 176" fill="none">
  <g clip-path="url(#clip0_1_169)">
    <path
      d="M145.003 8.81641H15.3001C10.8261 8.81641 7.19922 12.4433 7.19922 16.9173V166.96C7.19922 171.434 10.8261 175.06 15.3001 175.06H145.003C149.477 175.06 153.104 171.434 153.104 166.96V16.9173C153.104 12.4433 149.477 8.81641 145.003 8.81641Z"
      fill="#0D0C0C" />
    <mask id="mask0_1_169" style="mask-type:luminance" maskUnits="userSpaceOnUse" x="1" y="2" width="147" height="168">
      <path
        d="M143.388 2.82422H6.30593C3.86958 2.82422 1.89453 4.79927 1.89453 7.23562V164.657C1.89453 167.093 3.86958 169.068 6.30593 169.068H143.388C145.824 169.068 147.8 167.093 147.8 164.657V7.23562C147.8 4.79927 145.824 2.82422 143.388 2.82422Z"
        fill="white" />
    </mask>
    <g mask="url(#mask0_1_169)">
      <path
        d="M143.388 2.82422H6.30593C3.86958 2.82422 1.89453 4.79927 1.89453 7.23562V164.657C1.89453 167.093 3.86958 169.068 6.30593 169.068H143.388C145.824 169.068 147.8 167.093 147.8 164.657V7.23562C147.8 4.79927 145.824 2.82422 143.388 2.82422Z"
        fill="#0D0C0C" />
      <path d="M1.89453 2.82422H147.179V17.4731H1.89453V2.82422Z" fill="#0D0C0C" />
      <path
        d="M9.00057 12.0466C10.2284 12.0466 11.2238 11.0512 11.2238 9.82333C11.2238 8.59547 10.2284 7.6001 9.00057 7.6001C7.77272 7.6001 6.77734 8.59547 6.77734 9.82333C6.77734 11.0512 7.77272 12.0466 9.00057 12.0466Z"
        fill="white" />
      <path
        d="M16.4224 12.0466C17.6502 12.0466 18.6456 11.0512 18.6456 9.82333C18.6456 8.59547 17.6502 7.6001 16.4224 7.6001C15.1945 7.6001 14.1992 8.59547 14.1992 9.82333C14.1992 11.0512 15.1945 12.0466 16.4224 12.0466Z"
        fill="white" />
      <path
        d="M23.8443 12.0466C25.0721 12.0466 26.0675 11.0512 26.0675 9.82333C26.0675 8.59547 25.0721 7.6001 23.8443 7.6001C22.6164 7.6001 21.6211 8.59547 21.6211 9.82333C21.6211 11.0512 22.6164 12.0466 23.8443 12.0466Z"
        fill="white" />
      <mask id="mask1_1_169" style="mask-type:luminance" maskUnits="userSpaceOnUse" x="1" y="2" width="147" height="16">
        <path d="M1.89453 2.82422H147.179V17.4731H1.89453V2.82422Z" fill="white" />
      </mask>
      <g mask="url(#mask1_1_169)">
        <path d="M147.179 15.6278H1.89453V19.3184H147.179V15.6278Z" fill="white" />
      </g>
    </g>
    <path
      d="M143.389 1.90161H6.30592C3.36 1.90161 0.971863 4.28975 0.971863 7.23567V164.657C0.971863 167.602 3.36 169.991 6.30592 169.991H143.389C146.335 169.991 148.723 167.602 148.723 164.657V7.23567C148.723 4.28975 146.335 1.90161 143.389 1.90161Z"
      stroke="white" stroke-width="1.84531" />
    <path
      d="M16.5429 35.2808H15.9087L15.7366 33.3056C15.7094 32.9613 15.8906 32.6986 16.2258 32.6986C16.5883 32.6986 16.7423 32.9613 16.7151 33.3056L16.5429 35.2808ZM18.4185 35.2808H17.7842L17.6121 33.3056C17.5849 32.9613 17.7661 32.6986 18.1014 32.6986C18.4638 32.6986 18.6178 32.9613 18.5906 33.3056L18.4185 35.2808ZM22.9498 33.6409C22.6145 33.6409 22.3518 33.3872 22.3518 33.0429C22.3518 32.7076 22.6145 32.4539 22.9498 32.4539C23.285 32.4539 23.5478 32.7076 23.5478 33.0429C23.5478 33.3872 23.285 33.6409 22.9498 33.6409ZM23.3122 38.3976H24.9431V39.0771H20.9383V38.3976H22.5692V35.1358H20.9383V34.4563H23.3122V38.3976ZM28.6408 39.0771H27.8978V35.1358H26.4301V34.4563H27.8978V33.9399C27.8978 33.1244 28.2421 32.7348 29.1029 32.7348H30.5616V33.4144H29.1482C28.7767 33.4144 28.6408 33.5684 28.6408 33.9217V34.4563H30.5616V35.1358H28.6408V39.0771ZM36.2074 39.7567H31.8402V39.1315H36.2074V39.7567ZM41.7263 39.0771H40.1044C39.2165 39.0771 38.8994 38.6875 38.8994 37.8721V35.1358H37.4316V34.4563H38.8994V33.1607H39.6423V34.4563H41.6538V35.1358H39.6423V37.863C39.6423 38.2526 39.7783 38.3976 40.1769 38.3976H41.7263V39.0771ZM45.4784 34.4019C46.6381 34.4019 47.2995 35.1721 47.2995 36.504V39.0771H46.5566V36.5493C46.5566 35.607 46.1216 35.0815 45.3515 35.0815C44.527 35.0815 44.0015 35.7338 44.0015 36.7667V39.0771H43.2585V32.7348H44.0015V35.0815C44.3458 34.6556 44.8804 34.4019 45.4784 34.4019ZM51.0425 33.6409C50.7073 33.6409 50.4446 33.3872 50.4446 33.0429C50.4446 32.7076 50.7073 32.4539 51.0425 32.4539C51.3778 32.4539 51.6405 32.7076 51.6405 33.0429C51.6405 33.3872 51.3778 33.6409 51.0425 33.6409ZM51.405 38.3976H53.0358V39.0771H49.0311V38.3976H50.662V35.1358H49.0311V34.4563H51.405V38.3976ZM56.5886 39.1315C55.3926 39.1315 54.5681 38.5698 54.55 37.555H55.3111C55.3383 38.0986 55.8185 38.4973 56.5886 38.4973C57.241 38.4973 57.7031 38.2164 57.7031 37.7906C57.7031 37.2107 57.1957 37.1654 56.5071 37.0838C55.4742 36.957 54.6497 36.7486 54.6497 35.7882C54.6497 34.9456 55.4198 34.4019 56.4618 34.4019C57.5128 34.4019 58.2739 34.9003 58.3464 35.8607H57.5853C57.5309 35.3895 57.096 35.0362 56.4618 35.0362C55.8185 35.0362 55.3836 35.308 55.3836 35.7338C55.3836 36.2412 55.8728 36.3046 56.5433 36.3862C57.5943 36.513 58.437 36.7124 58.437 37.7362C58.437 38.5969 57.6125 39.1315 56.5886 39.1315ZM61.4914 35.2808H60.8572L60.685 33.3056C60.6578 32.9613 60.839 32.6986 61.1743 32.6986C61.5367 32.6986 61.6907 32.9613 61.6635 33.3056L61.4914 35.2808ZM63.3669 35.2808H62.7327L62.5605 33.3056C62.5334 32.9613 62.7146 32.6986 63.0498 32.6986C63.4122 32.6986 63.5662 32.9613 63.5391 33.3056L63.3669 35.2808ZM67.7351 35.7248C67.409 35.7248 67.1643 35.4983 67.1643 35.163C67.1643 34.8278 67.409 34.6013 67.7351 34.6013C68.0613 34.6013 68.3059 34.8278 68.3059 35.163C68.3059 35.4983 68.0613 35.7248 67.7351 35.7248ZM67.7351 39.1225C67.409 39.1225 67.1643 38.8959 67.1643 38.5607C67.1643 38.2255 67.409 37.999 67.7351 37.999C68.0613 37.999 68.3059 38.2255 68.3059 38.5607C68.3059 38.8959 68.0613 39.1225 67.7351 39.1225ZM80.7118 33.1154H79.5249C79.0266 33.1154 78.7004 33.3872 78.7004 33.9036C78.7004 33.9942 78.7095 34.1029 78.7367 34.2207L78.9179 35.0271C78.9451 35.154 78.9632 35.2717 78.9632 35.3895C78.9632 35.8788 78.7095 36.2231 78.2383 36.3318C78.7004 36.4134 78.9632 36.7939 78.9632 37.3013C78.9632 37.4191 78.9541 37.5459 78.9179 37.6909L78.7367 38.4973C78.7095 38.6151 78.7004 38.7329 78.7004 38.8144C78.7004 39.3399 79.0266 39.6027 79.5249 39.6027H80.7118V40.255H79.5521C78.6098 40.255 77.9756 39.7748 77.9756 38.9594C77.9756 38.8416 77.9846 38.7147 78.0118 38.5788L78.184 37.7271C78.2112 37.6094 78.2202 37.4916 78.2202 37.3919C78.2202 36.9298 77.9122 36.6852 77.0514 36.6671V36.0509C77.9212 36.0328 78.2293 35.7791 78.2293 35.3261C78.2293 35.2264 78.2112 35.1087 78.184 34.9909L78.0118 34.1392C77.9846 34.0033 77.9756 33.8764 77.9756 33.7496C77.9756 32.9432 78.6098 32.463 79.5521 32.463H80.7118V33.1154ZM50.2543 47.2808H49.6201L49.4479 45.3056C49.4207 44.9613 49.6019 44.6986 49.9372 44.6986C50.2996 44.6986 50.4536 44.9613 50.4264 45.3056L50.2543 47.2808ZM52.1298 47.2808H51.4956L51.3234 45.3056C51.2962 44.9613 51.4774 44.6986 51.8127 44.6986C52.1751 44.6986 52.3291 44.9613 52.302 45.3056L52.1298 47.2808ZM56.6158 46.4019C57.8933 46.4019 58.8356 47.2627 58.8356 48.7667C58.8356 50.1802 57.8933 51.1315 56.6158 51.1315C55.8366 51.1315 55.3111 50.8144 55.0302 50.3704V52.8892H54.2873V46.4563H54.9306L55.0302 47.1993C55.3383 46.7734 55.8366 46.4019 56.6158 46.4019ZM56.5433 50.4701C57.4584 50.4701 58.0745 49.7724 58.0745 48.7667C58.0745 47.761 57.4584 47.0634 56.5433 47.0634C55.6373 47.0634 55.0212 47.761 55.0212 48.7486C55.0212 49.7634 55.6373 50.4701 56.5433 50.4701ZM64.273 47.1811H63.4213C62.3068 47.1811 61.9716 48.0147 61.9716 48.7486V50.3976H64.0193V51.0771H60.087V50.3976H61.2286V47.1358H60.087V46.4563H61.9535V47.2536C62.1619 46.9003 62.5968 46.4563 63.5028 46.4563H64.273V47.1811ZM67.7351 51.1315C66.3851 51.1315 65.4428 50.1711 65.4428 48.7667C65.4428 47.3624 66.3851 46.4019 67.7351 46.4019C69.0851 46.4019 70.0274 47.3624 70.0274 48.7667C70.0274 50.1711 69.0851 51.1315 67.7351 51.1315ZM67.7351 50.4701C68.6502 50.4701 69.2663 49.7543 69.2663 48.7667C69.2663 47.7791 68.6502 47.0634 67.7351 47.0634C66.82 47.0634 66.2039 47.7791 66.2039 48.7667C66.2039 49.7543 66.82 50.4701 67.7351 50.4701ZM75.4376 51.0771H73.8158C72.9278 51.0771 72.6107 50.6875 72.6107 49.8721V47.1358H71.1429V46.4563H72.6107V45.1607H73.3537V46.4563H75.3651V47.1358H73.3537V49.863C73.3537 50.2526 73.4896 50.3976 73.8883 50.3976H75.4376V51.0771ZM78.9722 51.1315C77.6222 51.1315 76.6799 50.1711 76.6799 48.7667C76.6799 47.3624 77.6222 46.4019 78.9722 46.4019C80.3222 46.4019 81.2645 47.3624 81.2645 48.7667C81.2645 50.1711 80.3222 51.1315 78.9722 51.1315ZM78.9722 50.4701C79.8873 50.4701 80.5035 49.7543 80.5035 48.7667C80.5035 47.7791 79.8873 47.0634 78.9722 47.0634C78.0571 47.0634 77.441 47.7791 77.441 48.7667C77.441 49.7543 78.0571 50.4701 78.9722 50.4701ZM84.7086 51.1315C83.3586 51.1315 82.4706 50.2164 82.4706 48.7758C82.4706 47.3624 83.3857 46.4019 84.7267 46.4019C85.8593 46.4019 86.575 47.0362 86.7653 48.0509H85.9861C85.8502 47.4348 85.3972 47.0634 84.7176 47.0634C83.8297 47.0634 83.2317 47.7701 83.2317 48.7758C83.2317 49.7815 83.8297 50.4701 84.7176 50.4701C85.3791 50.4701 85.8321 50.0896 85.977 49.5006H86.7653C86.5841 50.4973 85.8321 51.1315 84.7086 51.1315ZM90.2094 51.1315C88.8593 51.1315 87.9171 50.1711 87.9171 48.7667C87.9171 47.3624 88.8593 46.4019 90.2094 46.4019C91.5594 46.4019 92.5017 47.3624 92.5017 48.7667C92.5017 50.1711 91.5594 51.1315 90.2094 51.1315ZM90.2094 50.4701C91.1245 50.4701 91.7406 49.7543 91.7406 48.7667C91.7406 47.7791 91.1245 47.0634 90.2094 47.0634C89.2942 47.0634 88.6781 47.7791 88.6781 48.7667C88.6781 49.7543 89.2942 50.4701 90.2094 50.4701ZM96.2628 50.3976H97.8937V51.0771H93.889V50.3976H95.5198V45.4144H93.889V44.7348H96.2628V50.3976ZM100.821 47.2808H100.187L100.015 45.3056C99.9877 44.9613 100.169 44.6986 100.504 44.6986C100.867 44.6986 101.021 44.9613 100.993 45.3056L100.821 47.2808ZM102.697 47.2808H102.063L101.89 45.3056C101.863 44.9613 102.044 44.6986 102.38 44.6986C102.742 44.6986 102.896 44.9613 102.869 45.3056L102.697 47.2808ZM107.065 47.7248C106.739 47.7248 106.494 47.4983 106.494 47.163C106.494 46.8278 106.739 46.6013 107.065 46.6013C107.391 46.6013 107.636 46.8278 107.636 47.163C107.636 47.4983 107.391 47.7248 107.065 47.7248ZM107.065 51.1225C106.739 51.1225 106.494 50.8959 106.494 50.5607C106.494 50.2255 106.739 49.999 107.065 49.999C107.391 49.999 107.636 50.2255 107.636 50.5607C107.636 50.8959 107.391 51.1225 107.065 51.1225ZM16.5429 59.2808H15.9087L15.7366 57.3056C15.7094 56.9613 15.8906 56.6986 16.2258 56.6986C16.5883 56.6986 16.7423 56.9613 16.7151 57.3056L16.5429 59.2808ZM18.4185 59.2808H17.7842L17.6121 57.3056C17.5849 56.9613 17.7661 56.6986 18.1014 56.6986C18.4638 56.6986 18.6178 56.9613 18.5906 57.3056L18.4185 59.2808ZM22.7867 63.1315C21.4367 63.1315 20.4944 62.1711 20.4944 60.7667C20.4944 59.3624 21.4367 58.4019 22.7867 58.4019C24.1367 58.4019 25.079 59.3624 25.079 60.7667C25.079 62.1711 24.1367 63.1315 22.7867 63.1315ZM22.7867 62.4701C23.7018 62.4701 24.3179 61.7543 24.3179 60.7667C24.3179 59.7791 23.7018 59.0634 22.7867 59.0634C21.8716 59.0634 21.2555 59.7791 21.2555 60.7667C21.2555 61.7543 21.8716 62.4701 22.7867 62.4701ZM30.5616 59.1811H29.7099C28.5955 59.1811 28.2603 60.0147 28.2603 60.7486V62.3976H30.3079V63.0771H26.3757V62.3976H27.5173V59.1358H26.3757V58.4563H28.2421V59.2536C28.4505 58.9003 28.8854 58.4563 29.7915 58.4563H30.5616V59.1811ZM35.4916 59.163V56.7348H36.2345V63.0771H35.5913L35.4916 62.3342C35.1835 62.76 34.6852 63.1315 33.906 63.1315C32.6285 63.1315 31.6862 62.2708 31.6862 60.7667C31.6862 59.3533 32.6285 58.4019 33.906 58.4019C34.6852 58.4019 35.2107 58.7191 35.4916 59.163ZM33.9785 62.4701C34.8845 62.4701 35.5006 61.7724 35.5006 60.7848C35.5006 59.7701 34.8845 59.0634 33.9785 59.0634C33.0634 59.0634 32.4473 59.761 32.4473 60.7667C32.4473 61.7724 33.0634 62.4701 33.9785 62.4701ZM39.8054 57.6409C39.4702 57.6409 39.2074 57.3872 39.2074 57.0429C39.2074 56.7076 39.4702 56.4539 39.8054 56.4539C40.1407 56.4539 40.4034 56.7076 40.4034 57.0429C40.4034 57.3872 40.1407 57.6409 39.8054 57.6409ZM40.1679 62.3976H41.7987V63.0771H37.794V62.3976H39.4249V59.1358H37.794V58.4563H40.1679V62.3976ZM45.4784 58.4019C46.4569 58.4019 47.2723 58.9546 47.2723 60.4496V63.0771H46.5294V60.4949C46.5294 59.5707 46.0945 59.0815 45.3515 59.0815C44.5451 59.0815 44.0287 59.7067 44.0287 60.6218V63.0771H43.2857V58.4563H43.929L44.0287 59.0815C44.3005 58.7281 44.7535 58.4019 45.4784 58.4019ZM52.9362 62.3976H53.1718V63.0771H52.764C52.1479 63.0771 51.9395 62.8144 51.9305 62.3614C51.6405 62.7782 51.1785 63.1315 50.3811 63.1315C49.3664 63.1315 48.6778 62.6241 48.6778 61.7815C48.6778 60.8573 49.3211 60.3409 50.5352 60.3409H51.8942V60.0238C51.8942 59.4258 51.4684 59.0634 50.7435 59.0634C50.0912 59.0634 49.6563 59.3714 49.5657 59.8426H48.8227C48.9315 58.9365 49.6654 58.4019 50.7798 58.4019C51.9577 58.4019 52.6372 58.9909 52.6372 60.0691V62.0896C52.6372 62.3342 52.7278 62.3976 52.9362 62.3976ZM51.8942 61.1926V60.9661H50.4627C49.8013 60.9661 49.4298 61.2107 49.4298 61.7362C49.4298 62.1892 49.8194 62.4973 50.4355 62.4973C51.3597 62.4973 51.8942 61.9627 51.8942 61.1926ZM56.9329 62.3976H58.5638V63.0771H54.5591V62.3976H56.19V57.4144H54.5591V56.7348H56.9329V62.3976ZM62.2072 63.1315C61.0112 63.1315 60.1867 62.5698 60.1686 61.555H60.9296C60.9568 62.0986 61.437 62.4973 62.2072 62.4973C62.8595 62.4973 63.3216 62.2164 63.3216 61.7906C63.3216 61.2107 62.8142 61.1654 62.1256 61.0838C61.0927 60.957 60.2682 60.7486 60.2682 59.7882C60.2682 58.9456 61.0384 58.4019 62.0803 58.4019C63.1313 58.4019 63.8924 58.9003 63.9649 59.8607H63.2038C63.1495 59.3895 62.7146 59.0362 62.0803 59.0362C61.437 59.0362 61.0021 59.308 61.0021 59.7338C61.0021 60.2412 61.4914 60.3046 62.1619 60.3862C63.2129 60.513 64.0555 60.7124 64.0555 61.7362C64.0555 62.5969 63.231 63.1315 62.2072 63.1315ZM67.11 59.2808H66.4757L66.3036 57.3056C66.2764 56.9613 66.4576 56.6986 66.7928 56.6986C67.1553 56.6986 67.3093 56.9613 67.2821 57.3056L67.11 59.2808ZM68.9855 59.2808H68.3512L68.1791 57.3056C68.1519 56.9613 68.3331 56.6986 68.6684 56.6986C69.0308 56.6986 69.1848 56.9613 69.1576 57.3056L68.9855 59.2808ZM72.8101 64.409V63.9379C73.4533 63.9288 73.6527 63.4667 73.6527 63.1225C73.6527 63.0771 73.6527 63.0318 73.6346 62.9956C73.5621 63.0771 73.4171 63.1134 73.2993 63.1134C73.0003 63.1134 72.7738 62.9322 72.7738 62.5788C72.7738 62.2526 73.0094 61.999 73.4262 61.999C73.9154 61.999 74.2144 62.4701 74.2144 63.0137C74.2144 63.8654 73.6889 64.3909 72.8101 64.409ZM50.2543 72.2808H49.6201L49.4479 70.3056C49.4207 69.9613 49.6019 69.6986 49.9372 69.6986C50.2996 69.6986 50.4536 69.9613 50.4264 70.3056L50.2543 72.2808ZM52.1298 72.2808H51.4956L51.3234 70.3056C51.2962 69.9613 51.4774 69.6986 51.8127 69.6986C52.1751 69.6986 52.3291 69.9613 52.302 70.3056L52.1298 72.2808ZM56.498 76.1315C55.148 76.1315 54.2057 75.1711 54.2057 73.7667C54.2057 72.3624 55.148 71.4019 56.498 71.4019C57.848 71.4019 58.7903 72.3624 58.7903 73.7667C58.7903 75.1711 57.848 76.1315 56.498 76.1315ZM56.498 75.4701C57.4131 75.4701 58.0292 74.7543 58.0292 73.7667C58.0292 72.7791 57.4131 72.0634 56.498 72.0634C55.5829 72.0634 54.9668 72.7791 54.9668 73.7667C54.9668 74.7543 55.5829 75.4701 56.498 75.4701ZM62.2344 71.4019C63.5119 71.4019 64.4542 72.2627 64.4542 73.7667C64.4542 75.1802 63.5119 76.1315 62.2344 76.1315C61.4552 76.1315 60.9296 75.8144 60.6488 75.3704V77.8892H59.9058V71.4563H60.5491L60.6488 72.1993C60.9568 71.7734 61.4552 71.4019 62.2344 71.4019ZM62.1619 75.4701C63.077 75.4701 63.6931 74.7724 63.6931 73.7667C63.6931 72.761 63.077 72.0634 62.1619 72.0634C61.2558 72.0634 60.6397 72.761 60.6397 73.7486C60.6397 74.7634 61.2558 75.4701 62.1619 75.4701ZM69.9096 73.9298H66.3217V73.9751C66.3489 74.854 66.9016 75.4701 67.7804 75.4701C68.4328 75.4701 68.9402 75.1258 69.0942 74.5278H69.8462C69.665 75.452 68.9039 76.1315 67.8348 76.1315C66.4485 76.1315 65.5425 75.1802 65.5425 73.7667C65.5425 72.3624 66.4304 71.4019 67.7351 71.4019C69.0398 71.4019 69.8915 72.2264 69.9278 73.5946C69.9278 73.658 69.9187 73.8211 69.9096 73.9298ZM67.7442 72.0543C67.0647 72.0543 66.4395 72.5436 66.367 73.2956H69.1304C69.058 72.4983 68.5143 72.0543 67.7442 72.0543ZM75.5101 72.1811H74.6584C73.544 72.1811 73.2087 73.0147 73.2087 73.7486V75.3976H75.2564V76.0771H71.3241V75.3976H72.4658V72.1358H71.3241V71.4563H73.1906V72.2536C73.399 71.9003 73.8339 71.4563 74.7399 71.4563H75.5101V72.1811ZM81.029 75.3976H81.2645V76.0771H80.8568C80.2407 76.0771 80.0323 75.8144 80.0233 75.3614C79.7333 75.7782 79.2712 76.1315 78.4739 76.1315C77.4591 76.1315 76.7705 75.6241 76.7705 74.7815C76.7705 73.8573 77.4138 73.3409 78.6279 73.3409H79.987V73.0238C79.987 72.4258 79.5612 72.0634 78.8363 72.0634C78.184 72.0634 77.7491 72.3714 77.6585 72.8426H76.9155C77.0242 71.9365 77.7581 71.4019 78.8726 71.4019C80.0504 71.4019 80.73 71.9909 80.73 73.0691V75.0896C80.73 75.3342 80.8206 75.3976 81.029 75.3976ZM79.987 74.1926V73.9661H78.5555C77.894 73.9661 77.5226 74.2107 77.5226 74.7362C77.5226 75.1892 77.9122 75.4973 78.5283 75.4973C79.4524 75.4973 79.987 74.9627 79.987 74.1926ZM86.6747 76.0771H85.0529C84.1649 76.0771 83.8478 75.6875 83.8478 74.8721V72.1358H82.38V71.4563H83.8478V70.1607H84.5908V71.4563H86.6022V72.1358H84.5908V74.863C84.5908 75.2526 84.7267 75.3976 85.1254 75.3976H86.6747V76.0771ZM90.3724 70.6409C90.0372 70.6409 89.7744 70.3872 89.7744 70.0429C89.7744 69.7076 90.0372 69.4539 90.3724 69.4539C90.7077 69.4539 90.9704 69.7076 90.9704 70.0429C90.9704 70.3872 90.7077 70.6409 90.3724 70.6409ZM90.7349 75.3976H92.3657V76.0771H88.361V75.3976H89.9919V72.1358H88.361V71.4563H90.7349V75.3976ZM95.8279 76.1315C94.4779 76.1315 93.5356 75.1711 93.5356 73.7667C93.5356 72.3624 94.4779 71.4019 95.8279 71.4019C97.1779 71.4019 98.1202 72.3624 98.1202 73.7667C98.1202 75.1711 97.1779 76.1315 95.8279 76.1315ZM95.8279 75.4701C96.743 75.4701 97.3591 74.7543 97.3591 73.7667C97.3591 72.7791 96.743 72.0634 95.8279 72.0634C94.9128 72.0634 94.2967 72.7791 94.2967 73.7667C94.2967 74.7543 94.9128 75.4701 95.8279 75.4701ZM101.664 71.4019C102.642 71.4019 103.458 71.9546 103.458 73.4496V76.0771H102.715V73.4949C102.715 72.5707 102.28 72.0815 101.537 72.0815C100.731 72.0815 100.214 72.7067 100.214 73.6218V76.0771H99.4713V71.4563H100.115L100.214 72.0815C100.486 71.7281 100.939 71.4019 101.664 71.4019ZM106.44 72.2808H105.806L105.633 70.3056C105.606 69.9613 105.787 69.6986 106.123 69.6986C106.485 69.6986 106.639 69.9613 106.612 70.3056L106.44 72.2808ZM108.315 72.2808H107.681L107.509 70.3056C107.482 69.9613 107.663 69.6986 107.998 69.6986C108.361 69.6986 108.515 69.9613 108.488 70.3056L108.315 72.2808ZM112.684 72.7248C112.357 72.7248 112.113 72.4983 112.113 72.163C112.113 71.8278 112.357 71.6013 112.684 71.6013C113.01 71.6013 113.254 71.8278 113.254 72.163C113.254 72.4983 113.01 72.7248 112.684 72.7248ZM112.684 76.1225C112.357 76.1225 112.113 75.8959 112.113 75.5607C112.113 75.2255 112.357 74.999 112.684 74.999C113.01 74.999 113.254 75.2255 113.254 75.5607C113.254 75.8959 113.01 76.1225 112.684 76.1225ZM16.5429 84.2808H15.9087L15.7366 82.3056C15.7094 81.9613 15.8906 81.6986 16.2258 81.6986C16.5883 81.6986 16.7423 81.9613 16.7151 82.3056L16.5429 84.2808ZM18.4185 84.2808H17.7842L17.6121 82.3056C17.5849 81.9613 17.7661 81.6986 18.1014 81.6986C18.4638 81.6986 18.6178 81.9613 18.5906 82.3056L18.4185 84.2808ZM22.9498 82.6409C22.6145 82.6409 22.3518 82.3872 22.3518 82.0429C22.3518 81.7076 22.6145 81.4539 22.9498 81.4539C23.285 81.4539 23.5478 81.7076 23.5478 82.0429C23.5478 82.3872 23.285 82.6409 22.9498 82.6409ZM23.3122 87.3976H24.9431V88.0771H20.9383V87.3976H22.5692V84.1358H20.9383V83.4563H23.3122V87.3976ZM28.6227 83.4019C29.6012 83.4019 30.4167 83.9546 30.4167 85.4496V88.0771H29.6737V85.4949C29.6737 84.5707 29.2388 84.0815 28.4958 84.0815C27.6895 84.0815 27.173 84.7067 27.173 85.6218V88.0771H26.4301V83.4563H27.0733L27.173 84.0815C27.4448 83.7281 27.8978 83.4019 28.6227 83.4019ZM34.1144 88.1315C32.9184 88.1315 32.0939 87.5698 32.0758 86.555H32.8369C32.864 87.0986 33.3443 87.4973 34.1144 87.4973C34.7667 87.4973 35.2288 87.2164 35.2288 86.7906C35.2288 86.2107 34.7214 86.1654 34.0328 86.0838C33 85.957 32.1755 85.7486 32.1755 84.7882C32.1755 83.9456 32.9456 83.4019 33.9875 83.4019C35.0386 83.4019 35.7996 83.9003 35.8721 84.8607H35.111C35.0567 84.3895 34.6218 84.0362 33.9875 84.0362C33.3443 84.0362 32.9094 84.308 32.9094 84.7338C32.9094 85.2412 33.3986 85.3046 34.0691 85.3862C35.1201 85.513 35.9627 85.7124 35.9627 86.7362C35.9627 87.5969 35.1382 88.1315 34.1144 88.1315ZM39.7601 88.1315C38.4101 88.1315 37.5222 87.2164 37.5222 85.7758C37.5222 84.3624 38.4373 83.4019 39.7783 83.4019C40.9108 83.4019 41.6266 84.0362 41.8169 85.0509H41.0377C40.9018 84.4348 40.4487 84.0634 39.7692 84.0634C38.8813 84.0634 38.2833 84.7701 38.2833 85.7758C38.2833 86.7815 38.8813 87.4701 39.7692 87.4701C40.4306 87.4701 40.8836 87.0896 41.0286 86.5006H41.8169C41.6357 87.4973 40.8836 88.1315 39.7601 88.1315ZM47.4173 84.1811H46.5656C45.4512 84.1811 45.1159 85.0147 45.1159 85.7486V87.3976H47.1636V88.0771H43.2314V87.3976H44.373V84.1358H43.2314V83.4563H45.0978V84.2536C45.3062 83.9003 45.7411 83.4563 46.6472 83.4563H47.4173V84.1811ZM51.0425 82.6409C50.7073 82.6409 50.4446 82.3872 50.4446 82.0429C50.4446 81.7076 50.7073 81.4539 51.0425 81.4539C51.3778 81.4539 51.6405 81.7076 51.6405 82.0429C51.6405 82.3872 51.3778 82.6409 51.0425 82.6409ZM51.405 87.3976H53.0358V88.0771H49.0311V87.3976H50.662V84.1358H49.0311V83.4563H51.405V87.3976ZM56.6158 83.4019C57.8933 83.4019 58.8356 84.2627 58.8356 85.7667C58.8356 87.1802 57.8933 88.1315 56.6158 88.1315C55.8366 88.1315 55.3111 87.8144 55.0302 87.3704V89.8892H54.2873V83.4563H54.9306L55.0302 84.1993C55.3383 83.7734 55.8366 83.4019 56.6158 83.4019ZM56.5433 87.4701C57.4584 87.4701 58.0745 86.7724 58.0745 85.7667C58.0745 84.761 57.4584 84.0634 56.5433 84.0634C55.6373 84.0634 55.0212 84.761 55.0212 85.7486C55.0212 86.7634 55.6373 87.4701 56.5433 87.4701ZM64.2005 88.0771H62.5787C61.6907 88.0771 61.3736 87.6875 61.3736 86.8721V84.1358H59.9058V83.4563H61.3736V82.1607H62.1166V83.4563H64.128V84.1358H62.1166V86.863C62.1166 87.2526 62.2525 87.3976 62.6511 87.3976H64.2005V88.0771ZM67.8982 82.6409C67.563 82.6409 67.3002 82.3872 67.3002 82.0429C67.3002 81.7076 67.563 81.4539 67.8982 81.4539C68.2335 81.4539 68.4962 81.7076 68.4962 82.0429C68.4962 82.3872 68.2335 82.6409 67.8982 82.6409ZM68.2606 87.3976H69.8915V88.0771H65.8868V87.3976H67.5177V84.1358H65.8868V83.4563H68.2606V87.3976ZM73.3537 88.1315C72.0037 88.1315 71.0614 87.1711 71.0614 85.7667C71.0614 84.3624 72.0037 83.4019 73.3537 83.4019C74.7037 83.4019 75.646 84.3624 75.646 85.7667C75.646 87.1711 74.7037 88.1315 73.3537 88.1315ZM73.3537 87.4701C74.2688 87.4701 74.8849 86.7543 74.8849 85.7667C74.8849 84.7791 74.2688 84.0634 73.3537 84.0634C72.4386 84.0634 71.8225 84.7791 71.8225 85.7667C71.8225 86.7543 72.4386 87.4701 73.3537 87.4701ZM79.1897 83.4019C80.1682 83.4019 80.9837 83.9546 80.9837 85.4496V88.0771H80.2407V85.4949C80.2407 84.5707 79.8058 84.0815 79.0628 84.0815C78.2565 84.0815 77.74 84.7067 77.74 85.6218V88.0771H76.9971V83.4563H77.6403L77.74 84.0815C78.0118 83.7281 78.4649 83.4019 79.1897 83.4019ZM86.7744 88.7567H82.4072V88.1315H86.7744V88.7567ZM92.3657 84.1811H91.5141C90.3996 84.1811 90.0644 85.0147 90.0644 85.7486V87.3976H92.1121V88.0771H88.1798V87.3976H89.3214V84.1358H88.1798V83.4563H90.0463V84.2536C90.2547 83.9003 90.6896 83.4563 91.5956 83.4563H92.3657V84.1811ZM98.0024 85.9298H94.4145V85.9751C94.4417 86.854 94.9943 87.4701 95.8732 87.4701C96.5256 87.4701 97.0329 87.1258 97.187 86.5278H97.939C97.7578 87.452 96.9967 88.1315 95.9276 88.1315C94.5413 88.1315 93.6353 87.1802 93.6353 85.7667C93.6353 84.3624 94.5232 83.4019 95.8279 83.4019C97.1326 83.4019 97.9843 84.2264 98.0205 85.5946C98.0205 85.658 98.0115 85.8211 98.0024 85.9298ZM95.837 84.0543C95.1574 84.0543 94.5323 84.5436 94.4598 85.2956H97.2232C97.1507 84.4983 96.6071 84.0543 95.837 84.0543ZM101.899 88.0771H101.003L99.1723 83.4563H99.9696L101.465 87.2345L102.951 83.4563H103.73L101.899 88.0771ZM109.24 85.9298H105.652V85.9751C105.679 86.854 106.231 87.4701 107.11 87.4701C107.763 87.4701 108.27 87.1258 108.424 86.5278H109.176C108.995 87.452 108.234 88.1315 107.165 88.1315C105.778 88.1315 104.872 87.1802 104.872 85.7667C104.872 84.3624 105.76 83.4019 107.065 83.4019C108.37 83.4019 109.221 84.2264 109.258 85.5946C109.258 85.658 109.249 85.8211 109.24 85.9298ZM107.074 84.0543C106.395 84.0543 105.769 84.5436 105.697 85.2956H108.46C108.388 84.4983 107.844 84.0543 107.074 84.0543ZM114.74 87.3976H114.976V88.0771H114.568C113.952 88.0771 113.744 87.8144 113.735 87.3614C113.445 87.7782 112.983 88.1315 112.185 88.1315C111.17 88.1315 110.482 87.6241 110.482 86.7815C110.482 85.8573 111.125 85.3409 112.339 85.3409H113.698V85.0238C113.698 84.4258 113.273 84.0634 112.548 84.0634C111.895 84.0634 111.46 84.3714 111.37 84.8426H110.627C110.736 83.9365 111.469 83.4019 112.584 83.4019C113.762 83.4019 114.441 83.9909 114.441 85.0691V87.0896C114.441 87.3342 114.532 87.3976 114.74 87.3976ZM113.698 86.1926V85.9661H112.267C111.605 85.9661 111.234 86.2107 111.234 86.7362C111.234 87.1892 111.623 87.4973 112.24 87.4973C113.164 87.4973 113.698 86.9627 113.698 86.1926ZM118.737 87.3976H120.368V88.0771H116.363V87.3976H117.994V82.4144H116.363V81.7348H118.737V87.3976ZM126.095 85.9298H122.507V85.9751C122.534 86.854 123.087 87.4701 123.966 87.4701C124.618 87.4701 125.126 87.1258 125.28 86.5278H126.032C125.851 87.452 125.089 88.1315 124.02 88.1315C122.634 88.1315 121.728 87.1802 121.728 85.7667C121.728 84.3624 122.616 83.4019 123.921 83.4019C125.225 83.4019 126.077 84.2264 126.113 85.5946C126.113 85.658 126.104 85.8211 126.095 85.9298ZM123.93 84.0543C123.25 84.0543 122.625 84.5436 122.553 85.2956H125.316C125.244 84.4983 124.7 84.0543 123.93 84.0543ZM18.6359 96.163V93.7348H19.3789V100.077H18.7356L18.6359 99.3342C18.3279 99.7599 17.8295 100.132 17.0503 100.132C15.7728 100.132 14.8305 99.2708 14.8305 97.7667C14.8305 96.3533 15.7728 95.4019 17.0503 95.4019C17.8295 95.4019 18.355 95.7191 18.6359 96.163ZM17.1228 99.4701C18.0289 99.4701 18.645 98.7724 18.645 97.7848C18.645 96.7701 18.0289 96.0634 17.1228 96.0634C16.2077 96.0634 15.5916 96.761 15.5916 97.7667C15.5916 98.7724 16.2077 99.4701 17.1228 99.4701ZM22.1615 96.2808H21.5273L21.3551 94.3056C21.3279 93.9613 21.5092 93.6986 21.8444 93.6986C22.2068 93.6986 22.3608 93.9613 22.3337 94.3056L22.1615 96.2808ZM24.037 96.2808H23.4028L23.2306 94.3056C23.2035 93.9613 23.3847 93.6986 23.7199 93.6986C24.0823 93.6986 24.2364 93.9613 24.2092 94.3056L24.037 96.2808ZM27.8616 101.409V100.938C28.5049 100.929 28.7042 100.467 28.7042 100.122C28.7042 100.077 28.7042 100.032 28.6861 99.9956C28.6136 100.077 28.4687 100.113 28.3509 100.113C28.0519 100.113 27.8254 99.9322 27.8254 99.5788C27.8254 99.2525 28.0609 98.999 28.4777 98.999C28.967 98.999 29.266 99.4701 29.266 100.014C29.266 100.865 28.7405 101.391 27.8616 101.409ZM52.8003 109.051V109.667C51.9395 109.685 51.6315 109.93 51.6315 110.392C51.6315 110.492 51.6405 110.609 51.6677 110.727L51.8399 111.579C51.867 111.715 51.8761 111.842 51.8761 111.959C51.8761 112.775 51.2419 113.255 50.2996 113.255H49.1398V112.603H50.3268C50.8251 112.603 51.1513 112.34 51.1513 111.814C51.1513 111.733 51.1422 111.615 51.115 111.497L50.9338 110.691C50.8976 110.546 50.8885 110.419 50.8885 110.301C50.8885 109.794 51.1513 109.413 51.6134 109.332C51.1422 109.223 50.8885 108.879 50.8885 108.39C50.8885 108.272 50.9066 108.154 50.9338 108.027L51.115 107.221C51.1422 107.103 51.1513 106.994 51.1513 106.904C51.1513 106.387 50.8251 106.115 50.3268 106.115H49.1398V105.463H50.2996C51.2419 105.463 51.8761 105.943 51.8761 106.75C51.8761 106.876 51.867 107.003 51.8399 107.139L51.6677 107.991C51.6405 108.109 51.6224 108.226 51.6224 108.326C51.6224 108.779 51.9305 109.033 52.8003 109.051ZM35.9446 121.051V121.667C35.0839 121.685 34.7758 121.93 34.7758 122.392C34.7758 122.492 34.7849 122.609 34.8121 122.727L34.9842 123.579C35.0114 123.715 35.0204 123.842 35.0204 123.959C35.0204 124.775 34.3862 125.255 33.4439 125.255H32.2842V124.603H33.4711C33.9694 124.603 34.2956 124.34 34.2956 123.814C34.2956 123.733 34.2865 123.615 34.2594 123.497L34.0782 122.691C34.0419 122.546 34.0328 122.419 34.0328 122.301C34.0328 121.794 34.2956 121.413 34.7577 121.332C34.2865 121.223 34.0328 120.879 34.0328 120.39C34.0328 120.272 34.051 120.154 34.0782 120.027L34.2594 119.221C34.2865 119.103 34.2956 118.994 34.2956 118.904C34.2956 118.387 33.9694 118.115 33.4711 118.115H32.2842V117.463H33.4439C34.3862 117.463 35.0204 117.943 35.0204 118.75C35.0204 118.876 35.0114 119.003 34.9842 119.139L34.8121 119.991C34.7849 120.109 34.7667 120.226 34.7667 120.326C34.7667 120.779 35.0748 121.033 35.9446 121.051ZM39.0987 125.409V124.938C39.742 124.929 39.9413 124.467 39.9413 124.122C39.9413 124.077 39.9413 124.032 39.9232 123.996C39.8507 124.077 39.7058 124.113 39.588 124.113C39.289 124.113 39.0625 123.932 39.0625 123.579C39.0625 123.253 39.298 122.999 39.7148 122.999C40.2041 122.999 40.5031 123.47 40.5031 124.014C40.5031 124.865 39.9776 125.391 39.0987 125.409ZM33.3986 132.281H32.7644L32.5922 130.306C32.5651 129.961 32.7463 129.699 33.0815 129.699C33.4439 129.699 33.5979 129.961 33.5708 130.306L33.3986 132.281ZM35.2741 132.281H34.6399L34.4678 130.306C34.4406 129.961 34.6218 129.699 34.957 129.699C35.3194 129.699 35.4735 129.961 35.4463 130.306L35.2741 132.281ZM41.7263 136.077H40.1044C39.2165 136.077 38.8994 135.688 38.8994 134.872V132.136H37.4316V131.456H38.8994V130.161H39.6423V131.456H41.6538V132.136H39.6423V134.863C39.6423 135.253 39.7783 135.398 40.1769 135.398H41.7263V136.077ZM45.4784 131.402C46.6381 131.402 47.2995 132.172 47.2995 133.504V136.077H46.5566V133.549C46.5566 132.607 46.1216 132.081 45.3515 132.081C44.527 132.081 44.0015 132.734 44.0015 133.767V136.077H43.2585V129.735H44.0015V132.081C44.3458 131.656 44.8804 131.402 45.4784 131.402ZM53.054 133.93H49.466V133.975C49.4932 134.854 50.0459 135.47 50.9248 135.47C51.5771 135.47 52.0845 135.126 52.2385 134.528H52.9905C52.8093 135.452 52.0483 136.132 50.9791 136.132C49.5929 136.132 48.6868 135.18 48.6868 133.767C48.6868 132.362 49.5747 131.402 50.8795 131.402C52.1842 131.402 53.0358 132.226 53.0721 133.595C53.0721 133.658 53.063 133.821 53.054 133.93ZM50.8885 132.054C50.209 132.054 49.5838 132.544 49.5113 133.296H52.2748C52.2023 132.498 51.6587 132.054 50.8885 132.054ZM56.7155 131.402C57.694 131.402 58.5094 131.955 58.5094 133.45V136.077H57.7665V133.495C57.7665 132.571 57.3316 132.081 56.5886 132.081C55.7822 132.081 55.2658 132.707 55.2658 133.622V136.077H54.5228V131.456H55.1661L55.2658 132.081C55.5376 131.728 55.9906 131.402 56.7155 131.402ZM64.3001 136.757H59.933V136.132H64.3001V136.757ZM69.819 136.077H68.1972C67.3093 136.077 66.9922 135.688 66.9922 134.872V132.136H65.5244V131.456H66.9922V130.161H67.7351V131.456H69.7466V132.136H67.7351V134.863C67.7351 135.253 67.871 135.398 68.2697 135.398H69.819V136.077ZM73.5711 131.402C74.7309 131.402 75.3923 132.172 75.3923 133.504V136.077H74.6493V133.549C74.6493 132.607 74.2144 132.081 73.4443 132.081C72.6198 132.081 72.0943 132.734 72.0943 133.767V136.077H71.3513V129.735H72.0943V132.081C72.4386 131.656 72.9731 131.402 73.5711 131.402ZM81.029 135.398H81.2645V136.077H80.8568C80.2407 136.077 80.0323 135.814 80.0233 135.361C79.7333 135.778 79.2712 136.132 78.4739 136.132C77.4591 136.132 76.7705 135.624 76.7705 134.782C76.7705 133.857 77.4138 133.341 78.6279 133.341H79.987V133.024C79.987 132.426 79.5612 132.063 78.8363 132.063C78.184 132.063 77.7491 132.371 77.6585 132.843H76.9155C77.0242 131.937 77.7581 131.402 78.8726 131.402C80.0504 131.402 80.73 131.991 80.73 133.069V135.09C80.73 135.334 80.8206 135.398 81.029 135.398ZM79.987 134.193V133.966H78.5555C77.894 133.966 77.5226 134.211 77.5226 134.736C77.5226 135.189 77.9122 135.497 78.5283 135.497C79.4524 135.497 79.987 134.963 79.987 134.193ZM86.6747 136.077H85.0529C84.1649 136.077 83.8478 135.688 83.8478 134.872V132.136H82.38V131.456H83.8478V130.161H84.5908V131.456H86.6022V132.136H84.5908V134.863C84.5908 135.253 84.7267 135.398 85.1254 135.398H86.6747V136.077ZM89.5842 132.281H88.9499L88.7778 130.306C88.7506 129.961 88.9318 129.699 89.2671 129.699C89.6295 129.699 89.7835 129.961 89.7563 130.306L89.5842 132.281ZM91.4597 132.281H90.8255L90.6533 130.306C90.6261 129.961 90.8073 129.699 91.1426 129.699C91.505 129.699 91.659 129.961 91.6318 130.306L91.4597 132.281ZM95.8279 132.725C95.5017 132.725 95.2571 132.498 95.2571 132.163C95.2571 131.828 95.5017 131.601 95.8279 131.601C96.1541 131.601 96.3987 131.828 96.3987 132.163C96.3987 132.498 96.1541 132.725 95.8279 132.725ZM95.8279 136.122C95.5017 136.122 95.2571 135.896 95.2571 135.561C95.2571 135.225 95.5017 134.999 95.8279 134.999C96.1541 134.999 96.3987 135.225 96.3987 135.561C96.3987 135.896 96.1541 136.122 95.8279 136.122ZM108.805 130.115H107.618C107.119 130.115 106.793 130.387 106.793 130.904C106.793 130.994 106.802 131.103 106.829 131.221L107.011 132.027C107.038 132.154 107.056 132.272 107.056 132.39C107.056 132.879 106.802 133.223 106.331 133.332C106.793 133.413 107.056 133.794 107.056 134.301C107.056 134.419 107.047 134.546 107.011 134.691L106.829 135.497C106.802 135.615 106.793 135.733 106.793 135.814C106.793 136.34 107.119 136.603 107.618 136.603H108.805V137.255H107.645C106.703 137.255 106.068 136.775 106.068 135.959C106.068 135.842 106.077 135.715 106.105 135.579L106.277 134.727C106.304 134.609 106.313 134.492 106.313 134.392C106.313 133.93 106.005 133.685 105.144 133.667V133.051C106.014 133.033 106.322 132.779 106.322 132.326C106.322 132.226 106.304 132.109 106.277 131.991L106.105 131.139C106.077 131.003 106.068 130.876 106.068 130.75C106.068 129.943 106.703 129.463 107.645 129.463H108.805V130.115ZM50.2543 144.281H49.6201L49.4479 142.306C49.4207 141.961 49.6019 141.699 49.9372 141.699C50.2996 141.699 50.4536 141.961 50.4264 142.306L50.2543 144.281ZM52.1298 144.281H51.4956L51.3234 142.306C51.2962 141.961 51.4774 141.699 51.8127 141.699C52.1751 141.699 52.3291 141.961 52.302 142.306L52.1298 144.281ZM56.7155 143.402C57.8752 143.402 58.5366 144.172 58.5366 145.504V148.077H57.7937V145.549C57.7937 144.607 57.3588 144.081 56.5886 144.081C55.7641 144.081 55.2386 144.734 55.2386 145.767V148.077H54.4956V141.735H55.2386V144.081C55.5829 143.656 56.1175 143.402 56.7155 143.402ZM64.2005 148.077H62.5787C61.6907 148.077 61.3736 147.688 61.3736 146.872V144.136H59.9058V143.456H61.3736V142.161H62.1166V143.456H64.128V144.136H62.1166V146.863C62.1166 147.253 62.2525 147.398 62.6511 147.398H64.2005V148.077ZM69.819 148.077H68.1972C67.3093 148.077 66.9922 147.688 66.9922 146.872V144.136H65.5244V143.456H66.9922V142.161H67.7351V143.456H69.7466V144.136H67.7351V146.863C67.7351 147.253 67.871 147.398 68.2697 147.398H69.819V148.077ZM73.4715 143.402C74.749 143.402 75.6913 144.263 75.6913 145.767C75.6913 147.18 74.749 148.132 73.4715 148.132C72.6923 148.132 72.1668 147.814 71.8859 147.37V149.889H71.1429V143.456H71.7862L71.8859 144.199C72.1939 143.773 72.6923 143.402 73.4715 143.402ZM73.399 147.47C74.3141 147.47 74.9302 146.772 74.9302 145.767C74.9302 144.761 74.3141 144.063 73.399 144.063C72.4929 144.063 71.8768 144.761 71.8768 145.749C71.8768 146.763 72.4929 147.47 73.399 147.47ZM81.1558 148.757H76.7887V148.132H81.1558V148.757ZM84.7086 143.402C85.9861 143.402 86.9284 144.263 86.9284 145.767C86.9284 147.18 85.9861 148.132 84.7086 148.132C83.9294 148.132 83.4039 147.814 83.123 147.37V149.889H82.38V143.456H83.0233L83.123 144.199C83.431 143.773 83.9294 143.402 84.7086 143.402ZM84.6361 147.47C85.5512 147.47 86.1673 146.772 86.1673 145.767C86.1673 144.761 85.5512 144.063 84.6361 144.063C83.73 144.063 83.1139 144.761 83.1139 145.749C83.1139 146.763 83.73 147.47 84.6361 147.47ZM90.2094 148.132C88.8593 148.132 87.9171 147.171 87.9171 145.767C87.9171 144.362 88.8593 143.402 90.2094 143.402C91.5594 143.402 92.5017 144.362 92.5017 145.767C92.5017 147.171 91.5594 148.132 90.2094 148.132ZM90.2094 147.47C91.1245 147.47 91.7406 146.754 91.7406 145.767C91.7406 144.779 91.1245 144.063 90.2094 144.063C89.2942 144.063 88.6781 144.779 88.6781 145.767C88.6781 146.754 89.2942 147.47 90.2094 147.47ZM95.9185 148.132C94.7225 148.132 93.898 147.57 93.8799 146.555H94.641C94.6682 147.099 95.1484 147.497 95.9185 147.497C96.5709 147.497 97.0329 147.216 97.0329 146.791C97.0329 146.211 96.5256 146.165 95.837 146.084C94.8041 145.957 93.9796 145.749 93.9796 144.788C93.9796 143.946 94.7497 143.402 95.7917 143.402C96.8427 143.402 97.6038 143.9 97.6762 144.861H96.9152C96.8608 144.39 96.4259 144.036 95.7917 144.036C95.1484 144.036 94.7135 144.308 94.7135 144.734C94.7135 145.241 95.2027 145.305 95.8732 145.386C96.9242 145.513 97.7668 145.712 97.7668 146.736C97.7668 147.597 96.9423 148.132 95.9185 148.132ZM103.53 148.077H101.909C101.021 148.077 100.704 147.688 100.704 146.872V144.136H99.2357V143.456H100.704V142.161H101.446V143.456H103.458V144.136H101.446V146.863C101.446 147.253 101.582 147.398 101.981 147.398H103.53V148.077ZM106.44 144.281H105.806L105.633 142.306C105.606 141.961 105.787 141.699 106.123 141.699C106.485 141.699 106.639 141.961 106.612 142.306L106.44 144.281ZM108.315 144.281H107.681L107.509 142.306C107.482 141.961 107.663 141.699 107.998 141.699C108.361 141.699 108.515 141.961 108.488 142.306L108.315 144.281ZM112.684 144.725C112.357 144.725 112.113 144.498 112.113 144.163C112.113 143.828 112.357 143.601 112.684 143.601C113.01 143.601 113.254 143.828 113.254 144.163C113.254 144.498 113.01 144.725 112.684 144.725ZM112.684 148.122C112.357 148.122 112.113 147.896 112.113 147.561C112.113 147.225 112.357 146.999 112.684 146.999C113.01 146.999 113.254 147.225 113.254 147.561C113.254 147.896 113.01 148.122 112.684 148.122ZM125.66 142.115H124.473C123.975 142.115 123.649 142.387 123.649 142.904C123.649 142.994 123.658 143.103 123.685 143.221L123.866 144.027C123.894 144.154 123.912 144.272 123.912 144.39C123.912 144.879 123.658 145.223 123.187 145.332C123.649 145.413 123.912 145.794 123.912 146.301C123.912 146.419 123.903 146.546 123.866 146.691L123.685 147.497C123.658 147.615 123.649 147.733 123.649 147.814C123.649 148.34 123.975 148.603 124.473 148.603H125.66V149.255H124.501C123.558 149.255 122.924 148.775 122.924 147.959C122.924 147.842 122.933 147.715 122.96 147.579L123.132 146.727C123.16 146.609 123.169 146.492 123.169 146.392C123.169 145.93 122.861 145.685 122 145.667V145.051C122.87 145.033 123.178 144.779 123.178 144.326C123.178 144.226 123.16 144.109 123.132 143.991L122.96 143.139C122.933 143.003 122.924 142.876 122.924 142.75C122.924 141.943 123.558 141.463 124.501 141.463H125.66V142.115Z"
      fill="white" />
  </g>
  <defs>
    <clipPath id="clip0_1_169">
      <rect width="154" height="176" fill="white" />
    </clipPath>
  </defs>
</svg>