<svg width="24" height="24" viewBox="0 0 24 24" fill="none" xmlns="http://www.w3.org/2000/svg">
<g id="Medium" clip-path="url(#clip0_1_244)">
<path id="Vector" d="M13.539 11.9986C13.539 15.7619 10.509 18.8128 6.77118 18.8128C3.03337 18.8128 0.00360107 15.7628 0.00360107 11.9986C0.00360107 8.23434 3.0336 5.18457 6.77118 5.18457C10.5088 5.18457 13.539 8.23526 13.539 11.9986ZM20.9634 11.9986C20.9634 15.5413 19.4482 18.4129 17.5795 18.4129C15.7107 18.4129 14.1955 15.5404 14.1955 11.9986C14.1955 8.45679 15.7107 5.5842 17.5795 5.5842C19.4482 5.5842 20.9634 8.45679 20.9634 11.9986ZM24 11.9986C24 15.1727 23.4671 17.7456 22.8099 17.7456C22.1526 17.7456 21.6197 15.1717 21.6197 11.9986C21.6197 8.8254 22.1526 6.25156 22.8101 6.25156C23.4676 6.25156 24 8.82471 24 11.9986Z" fill="#1C1C1E" fill-opacity="0.72"/>
</g>
<defs>
<clipPath id="clip0_1_244">
<rect width="23.9961" height="23.9961" fill="white" transform="translate(0.00390625 0.00195312)"/>
</clipPath>
</defs>
</svg>
